<?xml version="1.0" standalone="no"?>
<!DOCTYPE svg PUBLIC "-//W3C//DTD SVG 20010904//EN"
 "http://www.w3.org/TR/2001/REC-SVG-20010904/DTD/svg10.dtd">
<svg version="1.0" xmlns="http://www.w3.org/2000/svg"
 width="300.000000pt" height="300.000000pt" viewBox="0 0 300.000000 300.000000"
 preserveAspectRatio="xMidYMid meet">
<metadata>
Created by potrace 1.14, written by Peter Selinger 2001-2017
</metadata>
<g transform="translate(0.000000,300.000000) scale(0.100000,-0.100000)"
fill="#000000" stroke="none">
<path d="M1455 2969 c-49 -4 -119 -12 -155 -19 -36 -7 -75 -14 -87 -16 -12 -2
-34 -9 -48 -14 -14 -5 -25 -7 -25 -5 0 2 -39 -9 -87 -26 -368 -130 -598 -352
-754 -727 -44 -105 -91 -277 -108 -387 -6 -38 -13 -86 -16 -105 -5 -39 -6
-331 -1 -370 2 -14 7 -52 11 -85 4 -33 9 -63 11 -66 2 -3 6 -20 9 -38 18 -104
64 -241 120 -356 105 -214 225 -355 414 -483 120 -82 324 -176 424 -196 12 -3
63 -14 112 -25 157 -35 380 -46 540 -25 27 3 64 8 81 10 151 18 402 104 572
196 103 55 325 204 342 229 3 4 5 242 5 529 0 382 -3 523 -12 528 -13 8 -1166
7 -1187 -1 -11 -4 -13 -39 -12 -168 l1 -163 420 -1 419 0 1 -263 0 -263 -25
-23 c-108 -102 -417 -235 -605 -261 -16 -2 -47 -7 -69 -11 -49 -8 -218 -8
-276 0 -135 19 -213 40 -325 87 -218 90 -366 228 -463 432 -127 265 -160 669
-81 990 82 329 244 549 497 672 73 35 184 72 242 81 19 3 64 10 100 15 83 13
265 9 350 -8 92 -18 99 -19 160 -41 228 -80 363 -224 455 -484 l27 -76 86 24
c48 13 123 34 167 45 44 12 82 23 84 25 1 1 -11 46 -28 99 -114 353 -308 555
-646 672 -183 63 -413 89 -640 72z"/>
</g>
</svg>
